{
  "accessors": [
    {
      "bufferView": 2,
      "componentType": 5126,
      "count": 1859,
      "max": [
        0.32286900281906128,
        1,
        0.37498798966407776
      ],
      "min": [
        -0.60764801502227783,
        0.017986100167036057,
        -0.54969799518585205
      ],
      "type": "VEC3"
    },
    {
      "bufferView": 2,
      "byteOffset": 22308,
      "componentType": 5126,
      "count": 1859,
      "max": [
        0.99991786479949951,
        0.99986064434051514,
        0.99982023239135742
      ],
      "min": [
        -0.99965775012969971,
        -1,
        -0.99825751781463623
      ],
      "type": "VEC3"
    },
    {
      "bufferView": 3,
      "componentType": 5126,
      "count": 1859,
      "max": [
        0.99994790554046631,
        0.88325077295303345,
        0.9971882700920105,
        1
      ],
      "min": [
        -0.35168910026550293,
        -0.9346311092376709,
        -0.99999982118606567,
        1
      ],
      "type": "VEC4"
    },
    {
      "bufferView": 1,
      "componentType": 5126,
      "count": 1859,
      "max": [
        0.9783560037612915,
        0.98612898588180542
      ],
      "min": [
        0.013581999577581882,
        0.0074590002186596394
      ],
      "type": "VEC2"
    },
    {
      "bufferView": 0,
      "componentType": 5125,
      "count": 10152,
      "max": [
        1858
      ],
      "min": [
        0
      ],
      "type": "SCALAR"
    },
    {
      "bufferView": 2,
      "byteOffset": 44616,
      "componentType": 5126,
      "count": 2163,
      "max": [
        0.40355101227760315,
        0.16596299409866333,
        0.54969799518585205
      ],
      "min": [
        -0.68839502334594727,
        -1,
        -0.53743702173233032
      ],
      "type": "VEC3"
    },
    {
      "bufferView": 2,
      "byteOffset": 70572,
      "componentType": 5126,
      "count": 2163,
      "max": [
        0.99995386600494385,
        0.99519544839859009,
        0.99947053194046021
      ],
      "min": [
        -0.99917185306549072,
        -1,
        -0.99947935342788696
      ],
      "type": "VEC3"
    },
    {
      "bufferView": 3,
      "byteOffset": 29744,
      "componentType": 5126,
      "count": 2163,
      "max": [
        0.99999904632568359,
        0.98698800802230835,
        0.98837709426879883,
        1
      ],
      "min": [
        -0.9980664849281311,
        -0.99977099895477295,
        -0.99930089712142944,
        -1
      ],
      "type": "VEC4"
    },
    {
      "bufferView": 1,
      "byteOffset": 14872,
      "componentType": 5126,
      "count": 2163,
      "max": [
        0.99485200643539429,
        0.92860400676727295
      ],
      "min": [
        0.0055350000038743019,
        0.0060890000313520432
      ],
      "type": "VEC2"
    },
    {
      "bufferView": 0,
      "byteOffset": 40608,
      "componentType": 5125,
      "count": 12024,
      "max": [
        2162
      ],
      "min": [
        0
      ],
      "type": "SCALAR"
    },
    {
      "bufferView": 2,
      "byteOffset": 96528,
      "componentType": 5126,
      "count": 975,
      "max": [
        0.27501198649406433,
        0.037119101732969284,
        0.32773700356483459
      ],
      "min": [
        -0.55910801887512207,
        -0.087793201208114624,
        -0.50673997402191162
      ],
      "type": "VEC3"
    },
    {
      "bufferView": 2,
      "byteOffset": 108228,
      "componentType": 5126,
      "count": 975,
      "max": [
        0.98786377906799316,
        0.99137073755264282,
        0.98942089080810547
      ],
      "min": [
        -0.98885977268218994,
        -0.99999213218688965,
        -0.98822236061096191
      ],
      "type": "VEC3"
    },
    {
      "bufferView": 3,
      "byteOffset": 64352,
      "componentType": 5126,
      "count": 975,
      "max": [
        0.99840307235717773,
        0.98795175552368164,
        0.99878162145614624,
        1
      ],
      "min": [
        -0.98888057470321655,
        -0.99108767509460449,
        -0.99987083673477173,
        1
      ],
      "type": "VEC4"
    },
    {
      "bufferView": 1,
      "byteOffset": 32176,
      "componentType": 5126,
      "count": 975,
      "max": [
        0.92635601758956909,
        0.57027602195739746
      ],
      "min": [
        0.79723197221755981,
        0.033672001212835312
      ],
      "type": "VEC2"
    },
    {
      "bufferView": 0,
      "byteOffset": 88704,
      "componentType": 5125,
      "count": 5376,
      "max": [
        974
      ],
      "min": [
        0
      ],
      "type": "SCALAR"
    },
    {
      "bufferView": 2,
      "byteOffset": 119928,
      "componentType": 5126,
      "count": 1071,
      "max": [
        0.68839502334594727,
        0.53634798526763916,
        0.14804300665855408
      ],
      "min": [
        0.1256449967622757,
        -0.4529460072517395,
        -0.19950200617313385
      ],
      "type": "VEC3"
    },
    {
      "bufferView": 2,
      "byteOffset": 132780,
      "componentType": 5126,
      "count": 1071,
      "max": [
        0.99271702766418457,
        0.99837309122085571,
        0.99973177909851074
      ],
      "min": [
        -0.99998736381530762,
        -0.99879997968673706,
        -0.99970173835754395
      ],
      "type": "VEC3"
    },
    {
      "bufferView": 3,
      "byteOffset": 79952,
      "componentType": 5126,
      "count": 1071,
      "max": [
        0.99973964691162109,
        0.98297727108001709,
        0.94308137893676758,
        1
      ],
      "min": [
        -0.99397051334381104,
        -0.93145352602005005,
        -0.999167799949646,
        1
      ],
      "type": "VEC4"
    },
    {
      "bufferView": 1,
      "byteOffset": 39976,
      "componentType": 5126,
      "count": 1071,
      "max": [
        0.7133139967918396,
        0.77283400297164917
      ],
      "min": [
        0.39433100819587708,
        0.45715901255607605
      ],
      "type": "VEC2"
    },
    {
      "bufferView": 0,
      "byteOffset": 110208,
      "componentType": 5125,
      "count": 6006,
      "max": [
        1070
      ],
      "min": [
        0
      ],
      "type": "SCALAR"
    }
  ],
  "asset": {
    "extras": {
      "author": "OctaDC (https://sketchfab.com/OctaDC)",
      "license": "CC-BY-4.0 (http://creativecommons.org/licenses/by/4.0/)",
      "source": "https://sketchfab.com/3d-models/maneki-neko-118f19a1e9a1479285a3141c0d1f9b3f",
      "title": "Maneki-Neko"
    },
    "generator": "Sketchfab-4.78.0",
    "version": "2.0"
  },
  "bufferViews": [
    {
      "buffer": 0,
      "byteLength": 134232,
      "byteOffset": 0,
      "name": "floatBufferViews",
      "target": 34963
    },
    {
      "buffer": 0,
      "byteLength": 48544,
      "byteOffset": 134232,
      "byteStride": 8,
      "name": "floatBufferViews",
      "target": 34962
    },
    {
      "buffer": 0,
      "byteLength": 145632,
      "byteOffset": 182776,
      "byteStride": 12,
      "name": "floatBufferViews",
      "target": 34962
    },
    {
      "buffer": 0,
      "byteLength": 97088,
      "byteOffset": 328408,
      "byteStride": 16,
      "name": "floatBufferViews",
      "target": 34962
    }
  ],
  "buffers": [
    {
      "byteLength": 425496,
      "uri": "scene.bin"
    }
  ],
  "images": [
    {
      "uri": "textures/initialShadingGroup_baseColor.jpeg"
    },
    {
      "uri": "textures/initialShadingGroup_metallicRoughness.png"
    },
    {
      "uri": "textures/initialShadingGroup_normal.png"
    }
  ],
  "materials": [
    {
      "doubleSided": true,
      "emissiveFactor": [
        0,
        0,
        0
      ],
      "name": "initialShadingGroup",
      "normalTexture": {
        "index": 2,
        "scale": 1,
        "texCoord": 0
      },
      "pbrMetallicRoughness": {
        "baseColorFactor": [
          1,
          1,
          1,
          1
        ],
        "baseColorTexture": {
          "index": 0,
          "texCoord": 0
        },
        "metallicFactor": 1,
        "metallicRoughnessTexture": {
          "index": 1,
          "texCoord": 0
        },
        "roughnessFactor": 1
      }
    }
  ],
  "meshes": [
    {
      "name": "defaultMaterial",
      "primitives": [
        {
          "attributes": {
            "NORMAL": 1,
            "POSITION": 0,
            "TANGENT": 2,
            "TEXCOORD_0": 3
          },
          "indices": 4,
          "material": 0,
          "mode": 4
        }
      ]
    },
    {
      "name": "defaultMaterial",
      "primitives": [
        {
          "attributes": {
            "NORMAL": 6,
            "POSITION": 5,
            "TANGENT": 7,
            "TEXCOORD_0": 8
          },
          "indices": 9,
          "material": 0,
          "mode": 4
        }
      ]
    },
    {
      "name": "defaultMaterial",
      "primitives": [
        {
          "attributes": {
            "NORMAL": 11,
            "POSITION": 10,
            "TANGENT": 12,
            "TEXCOORD_0": 13
          },
          "indices": 14,
          "material": 0,
          "mode": 4
        }
      ]
    },
    {
      "name": "defaultMaterial",
      "primitives": [
        {
          "attributes": {
            "NORMAL": 16,
            "POSITION": 15,
            "TANGENT": 17,
            "TEXCOORD_0": 18
          },
          "indices": 19,
          "material": 0,
          "mode": 4
        }
      ]
    }
  ],
  "nodes": [
    {
      "children": [
        1
      ],
      "name": "RootNode (gltf orientation matrix)",
      "rotation": [
        -0.70710678118654746,
        -0,
        -0,
        0.70710678118654757
      ]
    },
    {
      "children": [
        2
      ],
      "name": "RootNode (model correction matrix)"
    },
    {
      "children": [
        3,
        5,
        7,
        9
      ],
      "matrix": [
        1,
        0,
        0,
        0,
        0,
        -4.3711390063094768e-08,
        0.999999999999999,
        0,
        0,
        -0.999999999999999,
        -4.3711390063094768e-08,
        0,
        0,
        0,
        0,
        1
      ],
      "name": "Collada visual scene group"
    },
    {
      "children": [
        4
      ],
      "name": "g"
    },
    {
      "mesh": 0,
      "name": "defaultMaterial"
    },
    {
      "children": [
        6
      ],
      "name": "g"
    },
    {
      "mesh": 1,
      "name": "defaultMaterial"
    },
    {
      "children": [
        8
      ],
      "name": "g"
    },
    {
      "mesh": 2,
      "name": "defaultMaterial"
    },
    {
      "children": [
        10
      ],
      "name": "g"
    },
    {
      "mesh": 3,
      "name": "defaultMaterial"
    }
  ],
  "samplers": [
    {
      "magFilter": 9729,
      "minFilter": 9987,
      "wrapS": 10497,
      "wrapT": 10497
    }
  ],
  "scene": 0,
  "scenes": [
    {
      "name": "OSG_Scene",
      "nodes": [
        0
      ]
    }
  ],
  "textures": [
    {
      "sampler": 0,
      "source": 0
    },
    {
      "sampler": 0,
      "source": 1
    },
    {
      "sampler": 0,
      "source": 2
    }
  ]
}

